<?xml version="1.0" encoding="UTF-8" standalone="no"?>
<!DOCTYPE svg PUBLIC "-//W3C//DTD SVG 1.1//EN" "http://www.w3.org/Graphics/SVG/1.1/DTD/svg11.dtd">
<!-- Created with Vectornator (http://vectornator.io/) -->
<svg height="100%" stroke-miterlimit="10" style="fill-rule:nonzero;clip-rule:evenodd;stroke-linecap:round;stroke-linejoin:round;" version="1.1" viewBox="0 0 1350 399" width="100%" xml:space="preserve" xmlns="http://www.w3.org/2000/svg" xmlns:xlink="http://www.w3.org/1999/xlink">
<defs/>
<g id="Untitled">
<path d="M199.498 0.00460453C89.315 0.00463496 1.52104e-05 89.3196 7.10543e-14 199.502C-3.04207e-05 309.685 89.315 399 199.498 399C309.68 399 398.995 309.685 398.995 199.502C398.995 89.3196 309.68 0.00460453 199.498 0.00460453ZM199.498 35.4231C287.571 35.4231 358.974 108.882 358.974 199.502C358.974 280.852 301.431 348.328 225.945 361.292L225.945 321.575L225.945 125.558L225.945 77.5234L199.521 58.2255L173.051 77.5234L173.051 125.558L173.051 321.575L173.051 361.292C97.5751 348.318 40.021 280.844 40.021 199.502C40.021 108.882 111.424 35.4231 199.498 35.4231ZM147.468 84.1819L99.3166 119.32L99.3166 279.848L147.468 314.823L147.468 84.1819ZM251.527 84.1819L251.527 314.823L299.679 279.848L299.679 119.32L251.527 84.1819Z" fill="#ffffff" fill-rule="nonzero" opacity="1" stroke="none"/>
<g opacity="1">
<g opacity="1">
<path d="M415.982 22.9028C412.985 22.9028 411.187 24.7008 411.187 27.6973L411.187 57.6626C411.187 60.6591 412.985 62.457 415.982 62.457L450.742 62.457L450.742 257.831C450.742 261.127 452.54 262.625 455.536 262.625L486.7 262.625C489.996 262.625 491.494 261.127 491.494 257.831L491.494 62.457L526.254 62.457C529.55 62.457 531.049 60.6591 531.049 57.6626L531.049 27.6973C531.049 24.7008 529.55 22.9028 526.254 22.9028L415.982 22.9028Z" fill="#ffffff" fill-rule="nonzero" opacity="1" stroke="none"/>
<path d="M678.178 66.0529C678.178 37.8855 663.196 22.9028 635.028 22.9028L559.815 22.9028C556.819 22.9028 555.021 24.7008 555.021 27.6973L555.021 257.831C555.021 260.827 556.819 262.625 559.815 262.625L590.979 262.625C593.976 262.625 595.774 260.827 595.774 257.831L595.774 182.318L616.45 182.318L636.526 258.43C637.126 261.127 638.624 262.625 641.621 262.625L672.784 262.625C676.081 262.625 677.879 260.827 676.98 257.231L656.304 178.722C670.687 172.43 678.178 159.245 678.178 139.168L678.178 66.0529ZM595.774 142.764L595.774 62.457L625.439 62.457C633.23 62.457 637.425 66.6522 637.425 74.4431L637.425 130.778C637.425 138.569 633.23 142.764 625.439 142.764L595.774 142.764Z" fill="#ffffff" fill-rule="nonzero" opacity="1" stroke="none"/>
<path d="M712.938 22.9028C709.642 22.9028 708.144 24.7008 708.144 27.6973L708.144 257.831C708.144 260.827 709.642 262.625 712.938 262.625L744.102 262.625C747.098 262.625 748.896 260.827 748.896 257.831L748.896 27.6973C748.896 24.7008 747.098 22.9028 744.102 22.9028L712.938 22.9028Z" fill="#ffffff" fill-rule="nonzero" opacity="1" stroke="none"/>
<path d="M778.862 257.831C778.862 261.127 780.36 262.625 783.656 262.625L855.573 262.625C883.74 262.625 898.723 247.643 898.723 219.475L898.723 66.3525C898.723 38.1851 883.74 22.9028 855.573 22.9028L783.656 22.9028C780.36 22.9028 778.862 24.7008 778.862 27.6973L778.862 257.831ZM819.614 223.071L819.614 62.457L847.182 62.457C854.973 62.457 859.169 66.6522 859.169 74.7428L859.169 211.085C859.169 219.175 854.973 223.071 847.182 223.071L819.614 223.071Z" fill="#ffffff" fill-rule="nonzero" opacity="1" stroke="none"/>
<path d="M1048.25 27.6973C1048.25 24.7008 1047.05 22.9028 1043.46 22.9028L933.183 22.9028C930.486 22.9028 928.688 24.7008 928.688 27.6973L928.688 257.831C928.688 260.827 930.486 262.625 933.183 262.625L1043.46 262.625C1047.05 262.625 1048.25 260.827 1048.25 257.831L1048.25 227.865C1048.25 224.569 1047.05 223.071 1043.46 223.071L968.542 223.071L968.542 162.541L1025.78 162.541C1028.77 162.541 1030.57 160.743 1030.57 157.447L1030.57 127.781C1030.57 124.485 1028.77 122.687 1025.78 122.687L968.542 122.687L968.542 62.7567L1043.46 62.7567C1047.05 62.7567 1048.25 60.6591 1048.25 57.6626L1048.25 27.6973Z" fill="#ffffff" fill-rule="nonzero" opacity="1" stroke="none"/>
<path d="M1170.21 22.9028C1166.91 22.9028 1165.41 24.7008 1165.41 27.6973L1165.41 154.151L1163.62 154.151L1118.07 26.7983C1117.17 24.1015 1115.37 22.9028 1112.67 22.9028L1083.01 22.9028C1080.01 22.9028 1078.21 24.7008 1078.21 27.6973L1078.21 257.831C1078.21 260.827 1080.01 262.625 1083.01 262.625L1114.17 262.625C1117.47 262.625 1118.97 260.827 1118.97 257.831L1118.97 130.778L1120.47 130.778L1166.31 258.73C1167.21 261.427 1169.01 262.625 1171.71 262.625L1201.37 262.625C1204.37 262.625 1206.17 260.827 1206.17 257.831L1206.17 27.6973C1206.17 24.7008 1204.37 22.9028 1201.37 22.9028L1170.21 22.9028Z" fill="#ffffff" fill-rule="nonzero" opacity="1" stroke="none"/>
<path d="M1234.93 22.9028C1231.94 22.9028 1230.14 24.7008 1230.14 27.6973L1230.14 57.6626C1230.14 60.6591 1231.94 62.457 1234.93 62.457L1269.69 62.457L1269.69 257.831C1269.69 261.127 1271.49 262.625 1274.49 262.625L1305.65 262.625C1308.95 262.625 1310.45 261.127 1310.45 257.831L1310.45 62.457L1345.21 62.457C1348.5 62.457 1350 60.6591 1350 57.6626L1350 27.6973C1350 24.7008 1348.5 22.9028 1345.21 22.9028L1234.93 22.9028Z" fill="#ffffff" fill-rule="nonzero" opacity="1" stroke="none"/>
</g>
<g opacity="1">
<path d="M499.6 300.102C499.6 287.253 492.93 280.419 480.636 280.419L449.247 280.419C447.939 280.419 447.155 281.102 447.155 282.606L447.155 373.915C447.155 375.282 447.939 376.102 449.247 376.102L480.636 376.102C492.93 376.102 499.6 369.267 499.6 356.418L499.6 338.239C499.6 333.181 496.068 329.354 491.36 328.534L491.36 328.26C496.068 327.44 499.6 323.613 499.6 318.555L499.6 300.102ZM482.99 314.044C482.99 317.462 481.159 319.375 477.759 319.375L463.372 319.375L463.372 297.642L477.759 297.642C481.29 297.642 482.99 299.555 482.99 303.109L482.99 314.044ZM482.99 353.411C482.99 357.102 481.159 358.879 477.759 358.879L463.372 358.879L463.372 337.418L477.759 337.418C481.29 337.418 482.99 339.332 482.99 342.886L482.99 353.411Z" fill="#ffffff" fill-rule="nonzero" opacity="1" stroke="none"/>
<path d="M607.563 280.419C606.124 280.419 604.947 281.649 604.947 283.152L604.947 352.591C604.947 356.282 603.116 358.059 599.716 358.059L592.915 358.059C589.515 358.059 587.684 356.282 587.684 352.591L587.684 283.152C587.684 281.649 586.507 280.419 585.068 280.419L572.513 280.419C571.074 280.419 569.897 281.649 569.897 283.152L569.897 356.418C569.897 369.267 576.436 376.102 588.73 376.102L603.378 376.102C615.672 376.102 622.211 369.267 622.211 356.418L622.211 283.152C622.211 281.649 621.034 280.419 619.595 280.419L607.563 280.419Z" fill="#ffffff" fill-rule="nonzero" opacity="1" stroke="none"/>
<path d="M710.033 280.419C697.87 280.419 691.2 287.253 691.2 300.102L691.2 323.749C691.2 326.347 692.377 327.987 694.731 328.807L726.12 339.469L726.12 353.275C726.12 356.965 724.289 358.742 720.889 358.742L713.826 358.742C710.556 358.742 708.595 356.965 708.595 353.275L708.595 347.534C708.595 346.03 707.941 345.346 706.502 345.346L693.293 345.346C691.985 345.346 691.2 346.03 691.2 347.534L691.2 356.418C691.2 369.267 697.87 376.102 710.033 376.102L724.681 376.102C736.975 376.102 743.514 369.267 743.514 356.418L743.514 330.721C743.514 328.124 742.337 326.483 740.114 325.663L708.464 315.001L708.464 303.383C708.464 299.829 710.426 297.915 713.695 297.915L720.889 297.915C724.42 297.915 726.12 299.829 726.12 303.383L726.12 309.124C726.12 310.491 726.905 311.311 728.213 311.311L741.422 311.311C742.86 311.311 743.514 310.491 743.514 309.124L743.514 300.102C743.514 287.253 736.975 280.419 724.681 280.419L710.033 280.419Z" fill="#ffffff" fill-rule="nonzero" opacity="1" stroke="none"/>
<path d="M831.598 358.059L857.494 358.059C858.932 358.059 859.586 358.879 859.586 360.246L859.586 373.915C859.586 375.418 858.932 376.102 857.494 376.102L815.904 376.102C814.596 376.102 813.812 375.418 813.812 373.915L813.812 282.606C813.812 281.239 814.596 280.419 815.904 280.419L829.506 280.419C830.944 280.419 831.598 281.239 831.598 282.606L831.598 358.059Z" fill="#ffffff" fill-rule="nonzero" opacity="1" stroke="none"/>
<path d="M928.053 376.102C926.614 376.102 925.96 375.282 925.96 373.915L925.96 282.606C925.96 281.239 926.614 280.419 928.053 280.419L941.654 280.419C942.962 280.419 943.747 281.239 943.747 282.606L943.747 373.915C943.747 375.282 942.962 376.102 941.654 376.102L928.053 376.102Z" fill="#ffffff" fill-rule="nonzero" opacity="1" stroke="none"/>
<path d="M1055.5 280.419C1054.06 280.419 1053.41 281.239 1053.41 282.606L1053.41 334.411L1028.82 282.196C1028.3 280.965 1027.65 280.419 1026.47 280.419L1016.14 280.419C1014.83 280.419 1014.04 281.239 1014.04 282.606L1014.04 373.915C1014.04 375.282 1014.83 376.102 1016.14 376.102L1028.43 376.102C1029.87 376.102 1030.52 375.282 1030.52 373.915L1030.52 322.109L1055.11 374.325C1055.63 375.555 1056.29 376.102 1057.46 376.102L1067.8 376.102C1069.1 376.102 1069.89 375.282 1069.89 373.915L1069.89 282.606C1069.89 281.239 1069.1 280.419 1067.8 280.419L1055.5 280.419Z" fill="#ffffff" fill-rule="nonzero" opacity="1" stroke="none"/>
<path d="M1192.37 282.606C1192.37 281.239 1191.85 280.419 1190.28 280.419L1142.15 280.419C1140.97 280.419 1140.19 281.239 1140.19 282.606L1140.19 373.915C1140.19 375.282 1140.97 376.102 1142.15 376.102L1190.28 376.102C1191.85 376.102 1192.37 375.282 1192.37 373.915L1192.37 360.246C1192.37 358.742 1191.85 358.059 1190.28 358.059L1157.97 358.059L1157.97 337.829L1182.56 337.829C1183.87 337.829 1184.65 337.008 1184.65 335.505L1184.65 321.972C1184.65 320.469 1183.87 319.649 1182.56 319.649L1157.97 319.649L1157.97 298.598L1190.28 298.598C1191.85 298.598 1192.37 297.642 1192.37 296.275L1192.37 282.606Z" fill="#ffffff" fill-rule="nonzero" opacity="1" stroke="none"/>
<path d="M1277.58 280.419C1265.41 280.419 1258.74 287.253 1258.74 300.102L1258.74 323.749C1258.74 326.347 1259.92 327.987 1262.27 328.807L1293.66 339.469L1293.66 353.275C1293.66 356.965 1291.83 358.742 1288.43 358.742L1281.37 358.742C1278.1 358.742 1276.14 356.965 1276.14 353.275L1276.14 347.534C1276.14 346.03 1275.48 345.346 1274.05 345.346L1260.84 345.346C1259.53 345.346 1258.74 346.03 1258.74 347.534L1258.74 356.418C1258.74 369.267 1265.41 376.102 1277.58 376.102L1292.22 376.102C1304.52 376.102 1311.06 369.267 1311.06 356.418L1311.06 330.721C1311.06 328.124 1309.88 326.483 1307.66 325.663L1276.01 315.001L1276.01 303.383C1276.01 299.829 1277.97 297.915 1281.24 297.915L1288.43 297.915C1291.96 297.915 1293.66 299.829 1293.66 303.383L1293.66 309.124C1293.66 310.491 1294.45 311.311 1295.76 311.311L1308.96 311.311C1310.4 311.311 1311.06 310.491 1311.06 309.124L1311.06 300.102C1311.06 287.253 1304.52 280.419 1292.22 280.419L1277.58 280.419Z" fill="#ffffff" fill-rule="nonzero" opacity="1" stroke="none"/>
</g>
</g>
</g>
</svg>
